Coordinates
version=1
nRows=17
nColumns=24
inDegrees=yes

Units are S.I. units (second, meters, Newtons, ...)
Angles are in degrees.

endheader
time	pelvis_tilt	pelvis_list	pelvis_rotation	pelvis_tx	pelvis_ty	pelvis_tz	hip_flexion_r	hip_adduction_r	hip_rotation_r	knee_angle_r	ankle_angle_r	subtalar_angle_r	mtp_angle_r	hip_flexion_l	hip_adduction_l	hip_rotation_l	knee_angle_l	ankle_angle_l	subtalar_angle_l	mtp_angle_l	lumbar_extension	lumbar_bending	lumbar_rotation
      1.15850000	      4.23089884	      7.52609020	     -5.42204387	      0.12441137	      1.01847427	      0.27098012	     11.80081769	     -9.65330204	     -2.37362822	    -65.92462198	      5.66001714	    -19.05602315	     -1.15700913	      6.43556996	     10.59729712	     -2.29891483	    -11.02657999	      0.55241579	    -15.04524373	      6.71141389	    -11.43987785	     -9.41653614	      6.21455721
      1.16266667	      4.19049524	      7.39724777	     -5.39024464	      0.12953746	      1.01933098	      0.27077944	     12.30224891	     -9.37372702	     -2.29661927	    -65.39199866	      5.95195538	    -19.09217900	     -1.18209498	      6.00840736	     10.51221663	     -2.21083461	    -10.78126497	      0.67791666	    -15.02833147	      6.69453871	    -11.44878355	     -9.26839411	      6.14305571
      1.16683333	      4.16089832	      7.25367515	     -5.31097282	      0.13465313	      1.02023031	      0.27053370	     12.75115371	     -9.08560508	     -2.27017085	    -64.76429729	      6.16937200	    -19.08278888	     -1.27181550	      5.55602733	     10.42175381	     -1.99617695	    -10.51974705	      0.79859370	    -15.09179896	      6.62561848	    -11.49205752	     -9.10949898	      5.89952067
      1.17100000	      4.09906676	      7.12792434	     -5.26989081	      0.13979640	      1.02102781	      0.27035509	     13.24183971	     -8.80487304	     -2.20026113	    -64.09744778	      6.40999651	    -19.06853075	     -1.28937353	      5.13949404	     10.33326180	     -1.90298252	    -10.24746602	      0.90944880	    -15.06069925	      6.60785124	    -11.47572024	     -8.95684008	      5.82280353
      1.17516667	      4.07744753	      6.98443923	     -5.17654483	      0.14491867	      1.02188118	      0.27013406	     13.64337026	     -8.51799320	     -2.19051434	    -63.33923347	      6.60713032	    -19.02187833	     -1.37141305	      4.67496891	     10.23600218	     -1.69353794	     -9.97730059	      1.00361772	    -15.12806362	      6.51392425	    -11.52314396	     -8.80440588	      5.53012669
      1.17933333	      4.02113462	      6.84784444	     -5.10343217	      0.15004891	      1.02264460	      0.26995267	     14.08022564	     -8.23009768	     -2.15365732	    -62.53460280	      6.78014572	    -18.94426453	     -1.39105129	      4.25472347	     10.13226126	     -1.56885220	     -9.71498714	      1.11548515	    -15.09398449	      6.48378336	    -11.52201741	     -8.64691445	      5.43711379
      1.18350000	      3.99778117	      6.72595822	     -5.00503331	      0.15518023	      1.02341543	      0.26973343	     14.45876677	     -7.97755051	     -2.15719838	    -61.67261567	      6.91889714	    -18.86696163	     -1.43258646	      3.78351982	     10.05259240	     -1.36649553	     -9.42053886	      1.23611594	    -15.11512559	      6.40807291	    -11.56456295	     -8.50451596	      5.17390358
      1.18766667	      3.95627966	      6.58746424	     -4.90882892	      0.16031293	      1.02412962	      0.26954177	     14.83752385	     -7.69985989	     -2.15351049	    -60.75086158	      7.04032875	    -18.78501200	     -1.46008425	      3.33904453	      9.94554762	     -1.21017448	     -9.14158701	      1.34528065	    -15.09922106	      6.34139235	    -11.58072433	     -8.34266552	      4.98591312
      1.19183333	      3.89081442	      6.47085526	     -4.82256608	      0.16544757	      1.02475286	      0.26938515	     15.23830896	     -7.44039199	     -2.12920072	    -59.79316794	      7.15956420	    -18.67717088	     -1.46889176	      2.92601869	      9.85358674	     -1.09515340	     -8.86370073	      1.42648002	    -15.05904904	      6.30767572	    -11.56623303	     -8.20726939	      4.85393901
      1.19600000	      3.85683525	      6.35959060	     -4.70470486	      0.17058242	      1.02538571	      0.26918074	     15.57821789	     -7.20847487	     -2.15382900	    -58.77886872	      7.21652242	    -18.59434339	     -1.48556500	      2.46775690	      9.77517377	     -0.89683153	     -8.56851938	      1.55121704	    -15.06617373	      6.23243794	    -11.59155444	     -8.07480386	      4.55675065
      1.20016667	      3.82275520	      6.24580096	     -4.59557162	      0.17570712	      1.02597892	      0.26900820	     15.90374205	     -6.97078025	     -2.16631474	    -57.71664240	      7.26658590	    -18.48939526	     -1.49536067	      2.01158873	      9.68777856	     -0.73184625	     -8.26998295	      1.64482819	    -15.04790016	      6.15416941	    -11.61946384	     -7.94195183	      4.32687944
      1.20433333	      3.75167928	      6.13575358	     -4.48762422	      0.18084458	      1.02646753	      0.26885106	     16.25690979	     -6.73497863	     -2.17260955	    -56.61539959	      7.29822926	    -18.35504566	     -1.49688235	      1.60716247	      9.59542336	     -0.61118317	     -7.99376513	      1.72660131	    -15.00159674	      6.11396065	    -11.59337223	     -7.81066509	      4.17777129
      1.20850000	      3.67625459	      6.03248350	     -4.36917660	      0.18598095	      1.02689528	      0.26868769	     16.59907663	     -6.51491536	     -2.19584552	    -55.47510232	      7.29571091	    -18.23653681	     -1.49658871	      1.20540407	      9.50952154	     -0.46770152	     -7.71266476	      1.83079379	    -14.96065352	      6.07685133	    -11.56949714	     -7.68317482	      3.98788570
      1.21266667	      3.62023728	      5.93080333	     -4.24514370	      0.19111117	      1.02731209	      0.26852005	     16.90138206	     -6.30543904	     -2.23010122	    -54.29030283	      7.25921449	    -18.11959534	     -1.49469053	      0.78144631	      9.42571790	     -0.31864291	     -7.42617301	      1.93224076	    -14.92357364	      6.03815068	    -11.56661595	     -7.55941069	      3.76321249
      1.21683333	      3.56205559	      5.84412187	     -4.11833797	      0.19624299	      1.02767777	      0.26836367	     17.19270761	     -6.11753344	     -2.26807075	    -53.07089250	      7.19765726	    -18.00955732	     -1.49061214	      0.36074635	      9.35493314	     -0.16420868	     -7.13811756	      2.03127257	    -14.89387335	      5.99573002	    -11.55695946	     -7.45342486	      3.51525278
      1.22100000	      3.52932807	      5.75958245	     -3.98391845	      0.20136721	      1.02802515	      0.26819745	     17.44036519	     -5.94369173	     -2.32454338	    -51.81747108	      7.09969840	    -17.94208212	     -1.47952475	     -0.09858066	      9.28959846	      0.02975211	     -6.82594831	      2.15184967	    -14.89436228	      5.92239596	    -11.58416408	     -7.35065045	      3.16411872
      1.22516667	      3.41601248	      5.68415272	     -3.86596640	      0.20650623	      1.02819745	      0.26806232	     17.77132977	     -5.77130339	     -2.35417478	    -50.54206056	      7.00855718	    -17.77526765	     -1.47177740	     -0.44662404	      9.22181342	      0.13905563	     -6.55706359	      2.22587103	    -14.84956959	      5.88733977	    -11.50656802	     -7.25530617	      3.01178630
